<?xml version="1.0" encoding="iso-8859-1"?>
<!-- Generator: Adobe Illustrator 19.0.0, SVG Export Plug-In . SVG Version: 6.00 Build 0)  -->
<svg xmlns="http://www.w3.org/2000/svg" xmlns:xlink="http://www.w3.org/1999/xlink" version="1.1" id="Layer_1" x="0px" y="0px" viewBox="0 0 512 512" style="enable-background:new 0 0 512 512;" xml:space="preserve" width="512px" height="512px">
<g>
	<g>
		<g>
			<path d="M496.56,98.807C429.056,36.503,342.464,5.543,256,5.559c-86.448-0.016-173.056,31.2-240.56,93.504     C5.216,108.487-0.016,121.511,0,134.391c-0.016,11.6,4.24,23.376,12.72,32.56c9.424,10.224,22.416,15.488,35.296,15.472     c6.576,0.016,13.168-6.848,19.36-9.584l144.72,304.96h0.032c8.208,16,26.48,28.816,43.888,28.64     c17.408,0.176,35.68-12.64,43.888-28.64h0.032l144.72-304.976c6.192,2.736,12.768,6.928,19.344,6.928     c12.88,0.016,25.856-3.904,35.28-14.096c8.48-9.2,12.736-20.304,12.72-31.904C512.016,120.887,506.784,108.231,496.56,98.807z      M311.552,387.799c-13.504-3.76-23.52-16.048-23.552-30.704c0.032-17.6,14.4-31.968,32-32c6.768,0,12.912,2.224,18.08,5.824     L311.552,387.799z M351.648,301.831c-9.376-5.392-20.08-8.752-31.648-8.752c-35.344,0.032-63.968,28.672-64,64     c0.016,27.552,17.536,50.832,41.968,59.84l-27.056,58l-0.208,0.464c-2.976,6.752-8.384,9.52-14.704,9.696     c-6.32-0.176-11.728-2.944-14.704-9.696l-0.208-0.464L93.632,158.743c47.008-37.92,104.56-57.136,162.368-57.136     c57.808,0.016,115.344,19.216,162.384,57.152L351.648,301.831z M475.76,145.271c-3.184,3.44-7.408,5.12-11.776,5.136     c-3.904-0.016-7.712-1.376-10.848-4.256c-0.96-0.88-2-1.616-2.976-2.496c-0.336-0.384-0.8-0.64-1.184-0.992     C394.272,94.071,325.12,69.591,256,69.607c-69.12-0.016-138.256,24.464-192.976,73.072c-0.368,0.352-0.848,0.608-1.184,0.992     c-0.976,0.88-2.032,1.616-2.992,2.496c-3.136,2.88-6.912,4.24-10.832,4.256c-4.368-0.016-8.576-1.696-11.776-5.152     c-2.864-3.12-4.224-6.912-4.24-10.848c0.016-4.368,1.696-8.576,5.152-11.76C98.464,66.055,177.168,37.735,256,37.719     c78.832,0.016,157.536,28.336,218.848,84.944c3.456,3.184,5.136,7.392,5.152,11.76     C479.984,138.359,478.624,142.151,475.76,145.271z" fill="#FFFFFF"/>
			<path d="M160,197.095c0.032,35.328,28.656,63.968,64,64c35.328-0.032,63.968-28.672,64-64c-0.032-35.328-28.656-63.968-64-64     C188.672,133.111,160.032,161.751,160,197.095z M256,197.095c-0.032,17.6-14.4,31.968-32,32c-17.6-0.032-31.968-14.4-32-32     c0.032-17.6,14.4-31.968,32-32C241.6,165.127,255.968,179.479,256,197.095z" fill="#FFFFFF"/>
		</g>
	</g>
</g>
<g>
</g>
<g>
</g>
<g>
</g>
<g>
</g>
<g>
</g>
<g>
</g>
<g>
</g>
<g>
</g>
<g>
</g>
<g>
</g>
<g>
</g>
<g>
</g>
<g>
</g>
<g>
</g>
<g>
</g>
</svg>
